<svg xmlns="http://www.w3.org/2000/svg" viewBox="0 0 800 460" width="800" height="460" role="img" aria-label="Blending weight w = dt/(tau+dt) versus dt/tau, with an animated marker">
<title>Blending weight w = dt/(tau+dt) versus dt/tau, with an animated marker</title>
<style>
text{font-family:-apple-system,BlinkMacSystemFont,"Segoe UI","Noto Sans",Helvetica,Arial,sans-serif}
.bg{fill:#ffffff;stroke:#d0d7de}
.ink{fill:#1f2328}.mute{fill:#59636e}
.ax{stroke:#59636e;fill:none}.grid{stroke:#d8dee4;fill:none}
.ri{stroke:#bc4c00;fill:none}.riF{fill:#bc4c00}
.dl{stroke:#0969da;fill:none}.dlF{fill:#0969da}
.el{stroke:#8c959f;fill:none}.elF{fill:#8c959f}
.zone{fill:#ddf4ff}.zoneS{stroke:#54aeff}
.card{fill:#f6f8fa;stroke:#d0d7de}
.riCard{fill:#fff1e5;stroke:#ffb77c}.dlCard{fill:#ddf4ff;stroke:#80ccff}
@media (prefers-color-scheme: dark){
.bg{fill:#0d1117;stroke:#30363d}
.ink{fill:#e6edf3}.mute{fill:#9198a1}
.ax{stroke:#9198a1}.grid{stroke:#21262d}
.ri{stroke:#f0883e}.riF{fill:#f0883e}
.dl{stroke:#58a6ff}.dlF{fill:#58a6ff}
.el{stroke:#6e7681}.elF{fill:#6e7681}
.zone{fill:#0c2d6b}.zoneS{stroke:#388bfd}
.card{fill:#161b22;stroke:#30363d}
.riCard{fill:#3d1d00;stroke:#9e4a00}.dlCard{fill:#0c2d6b;stroke:#1f6feb}
}

</style>
<rect class="bg" x="0.5" y="0.5" width="799" height="459" rx="8"/>
<text class="ink" x="24" y="34" font-size="18" font-weight="600">Blending weight  w = dt / (τ + dt)</text>
<text class="mute" x="24" y="56" font-size="14">How far each step moves from the elastic trial toward today's rate-independent stress</text>
<rect class="zone" x="90" y="80" width="162.5" height="220" opacity="0.55"/>
<rect class="zone" x="577.5" y="80" width="162.5" height="220" opacity="0.55"/>
<line class="grid" x1="90" x2="740" y1="300.0" y2="300.0"/>
<text class="mute" x="80" y="305.0" font-size="13" text-anchor="end">0</text>
<line class="grid" x1="90" x2="740" y1="190.0" y2="190.0"/>
<text class="mute" x="80" y="195.0" font-size="13" text-anchor="end">½</text>
<line class="grid" x1="90" x2="740" y1="80.0" y2="80.0"/>
<text class="mute" x="80" y="85.0" font-size="13" text-anchor="end">1</text>
<line class="grid" x1="90.0" x2="90.0" y1="80" y2="300"/>
<text class="mute" x="90.0" y="320" font-size="13" text-anchor="middle">0.01</text>
<line class="grid" x1="252.5" x2="252.5" y1="80" y2="300"/>
<text class="mute" x="252.5" y="320" font-size="13" text-anchor="middle">0.1</text>
<line class="grid" x1="415.0" x2="415.0" y1="80" y2="300"/>
<text class="mute" x="415.0" y="320" font-size="13" text-anchor="middle">1</text>
<line class="grid" x1="577.5" x2="577.5" y1="80" y2="300"/>
<text class="mute" x="577.5" y="320" font-size="13" text-anchor="middle">10</text>
<line class="grid" x1="740.0" x2="740.0" y1="80" y2="300"/>
<text class="mute" x="740.0" y="320" font-size="13" text-anchor="middle">100</text>
<path class="ax" d="M90,80 V300 H740" stroke-width="1.2"/>
<text class="ink" x="415.0" y="342" font-size="14" text-anchor="middle">dt / τ   (log scale)</text>
<text class="ink" x="44" y="190.0" font-size="15" text-anchor="middle" font-style="italic">w</text>
<line class="el" x1="415.0" x2="415.0" y1="300" y2="190.0" stroke-dasharray="4 4"/>
<line class="el" x1="90" x2="415.0" y1="190.0" y2="190.0" stroke-dasharray="4 4"/>
<polyline class="dl" points="90.0,297.8 93.2,297.7 96.5,297.6 99.8,297.5 103.0,297.4 106.3,297.3 109.5,297.1 112.8,297.0 116.0,296.9 119.2,296.7 122.5,296.6 125.8,296.4 129.0,296.2 132.2,296.1 135.5,295.9 138.8,295.7 142.0,295.5 145.2,295.3 148.5,295.1 151.8,294.8 155.0,294.6 158.2,294.4 161.5,294.1 164.8,293.8 168.0,293.6 171.2,293.3 174.5,292.9 177.8,292.6 181.0,292.3 184.2,291.9 187.5,291.6 190.8,291.2 194.0,290.8 197.3,290.4 200.5,290.0 203.8,289.5 207.0,289.0 210.2,288.5 213.5,288.0 216.8,287.5 220.0,286.9 223.2,286.4 226.5,285.8 229.7,285.1 233.0,284.5 236.2,283.8 239.5,283.1 242.8,282.4 246.0,281.6 249.2,280.8 252.5,280.0 255.8,279.1 259.0,278.3 262.2,277.3 265.5,276.4 268.8,275.4 272.0,274.4 275.2,273.3 278.5,272.2 281.8,271.1 285.0,269.9 288.2,268.7 291.5,267.4 294.8,266.1 298.0,264.8 301.2,263.4 304.5,262.0 307.8,260.5 311.0,259.0 314.2,257.4 317.5,255.8 320.8,254.2 324.0,252.5 327.2,250.8 330.5,249.0 333.8,247.1 337.0,245.3 340.2,243.4 343.5,241.4 346.8,239.4 350.0,237.4 353.2,235.3 356.5,233.1 359.8,231.0 363.0,228.8 366.2,226.6 369.5,224.3 372.8,222.0 376.0,219.6 379.2,217.3 382.5,214.9 385.8,212.5 389.0,210.0 392.2,207.6 395.5,205.1 398.8,202.6 402.0,200.1 405.2,197.6 408.5,195.1 411.8,192.5 415.0,190.0 418.2,187.5 421.5,184.9 424.8,182.4 428.0,179.9 431.2,177.4 434.5,174.9 437.8,172.4 441.0,170.0 444.2,167.5 447.5,165.1 450.8,162.7 454.0,160.4 457.2,158.0 460.5,155.7 463.7,153.4 467.0,151.2 470.2,149.0 473.5,146.9 476.8,144.7 480.0,142.6 483.2,140.6 486.5,138.6 489.8,136.6 493.0,134.7 496.2,132.9 499.5,131.0 502.8,129.2 506.0,127.5 509.2,125.8 512.5,124.2 515.8,122.6 519.0,121.0 522.2,119.5 525.5,118.0 528.8,116.6 532.0,115.2 535.2,113.9 538.5,112.6 541.8,111.3 545.0,110.1 548.2,108.9 551.5,107.8 554.8,106.7 558.0,105.6 561.2,104.6 564.5,103.6 567.8,102.7 571.0,101.7 574.2,100.9 577.5,100.0 580.8,99.2 584.0,98.4 587.2,97.6 590.5,96.9 593.8,96.2 597.0,95.5 600.2,94.9 603.5,94.2 606.8,93.6 610.0,93.1 613.2,92.5 616.5,92.0 619.8,91.5 623.0,91.0 626.2,90.5 629.5,90.0 632.8,89.6 636.0,89.2 639.2,88.8 642.5,88.4 645.8,88.1 649.0,87.7 652.2,87.4 655.5,87.1 658.8,86.7 662.0,86.4 665.2,86.2 668.5,85.9 671.8,85.6 675.0,85.4 678.2,85.2 681.5,84.9 684.8,84.7 688.0,84.5 691.2,84.3 694.5,84.1 697.8,83.9 701.0,83.8 704.2,83.6 707.5,83.4 710.8,83.3 714.0,83.1 717.2,83.0 720.5,82.9 723.8,82.7 727.0,82.6 730.2,82.5 733.5,82.4 736.8,82.3 740.0,82.2" stroke-width="3"/>
<text class="ink" x="100" y="102" font-size="14" font-weight="600">dt ≪ τ  →  w → 0</text>
<text class="mute" x="100" y="120" font-size="13">stays nearly elastic</text>
<text class="mute" x="100" y="136" font-size="13">this step</text>
<text class="ink" x="730" y="256" font-size="14" font-weight="600" text-anchor="end">dt ≫ τ  →  w → 1</text>
<text class="mute" x="730" y="274" font-size="13" text-anchor="end">today's instant</text>
<text class="mute" x="730" y="290" font-size="13" text-anchor="end">return map</text>
<text class="mute" x="423.0" y="208.0" font-size="13">dt = τ: halfway</text>
<circle class="dlF" r="7" cx="90.0" cy="297.8"><animate attributeName="cx" values="90.0;103.5;117.1;130.6;144.2;157.7;171.2;184.8;198.3;211.9;225.4;239.0;252.5;266.0;279.6;293.1;306.7;320.2;333.8;347.3;360.8;374.4;387.9;401.5;415.0;428.5;442.1;455.6;469.2;482.7;496.2;509.8;523.3;536.9;550.4;564.0;577.5;591.0;604.6;618.1;631.7;645.2;658.8;672.3;685.8;699.4;712.9;726.5;740.0;726.5;712.9;699.4;685.8;672.3;658.8;645.2;631.7;618.1;604.6;591.0;577.5;564.0;550.4;536.9;523.3;509.8;496.2;482.7;469.2;455.6;442.1;428.5;415.0;401.5;387.9;374.4;360.8;347.3;333.8;320.2;306.7;293.1;279.6;266.0;252.5;239.0;225.4;211.9;198.3;184.8;171.2;157.7;144.2;130.6;117.1;103.5;90.0" dur="10s" repeatCount="indefinite"/><animate attributeName="cy" values="297.8;297.4;296.8;296.2;295.4;294.4;293.3;291.9;290.2;288.3;286.0;283.2;280.0;276.2;271.8;266.8;261.0;254.5;247.1;239.1;230.3;220.8;210.9;200.5;190.0;179.5;169.1;159.2;149.7;140.9;132.9;125.5;119.0;113.2;108.2;103.8;100.0;96.8;94.0;91.7;89.8;88.1;86.7;85.6;84.6;83.8;83.2;82.6;82.2;82.6;83.2;83.8;84.6;85.6;86.7;88.1;89.8;91.7;94.0;96.8;100.0;103.8;108.2;113.2;119.0;125.5;132.9;140.9;149.7;159.2;169.1;179.5;190.0;200.5;210.9;220.8;230.3;239.1;247.1;254.5;261.0;266.8;271.8;276.2;280.0;283.2;286.0;288.3;290.2;291.9;293.3;294.4;295.4;296.2;296.8;297.4;297.8" dur="10s" repeatCount="indefinite"/></circle>
<line class="el" x1="210" x2="650" y1="384" y2="384" stroke-width="6" stroke-linecap="round"/>
<circle class="elF" cx="210" cy="384" r="6"/><circle class="riF" cx="650" cy="384" r="6"/>
<text class="ink" x="196" y="389" font-size="14" text-anchor="end">σ<tspan dy="4" font-size="11">trial</tspan><tspan dy="-4"> </tspan>  (w = 0)</text>
<text class="ink" x="664" y="389" font-size="14">σ<tspan dy="4" font-size="11">RI</tspan><tspan dy="-4"> </tspan>  (w = 1)</text>
<circle class="dlF" r="8" cx="210" cy="384"><animate attributeName="cx" values="214.4;215.3;216.4;217.7;219.3;221.2;223.5;226.2;229.5;233.4;238.1;243.5;250.0;257.5;266.3;276.4;288.0;301.1;315.7;331.9;349.5;368.4;388.3;409.0;430.0;451.0;471.7;491.6;510.5;528.1;544.3;558.9;572.0;583.6;593.7;602.5;610.0;616.5;621.9;626.6;630.5;633.8;636.5;638.8;640.7;642.3;643.6;644.7;645.6;644.7;643.6;642.3;640.7;638.8;636.5;633.8;630.5;626.6;621.9;616.5;610.0;602.5;593.7;583.6;572.0;558.9;544.3;528.1;510.5;491.6;471.7;451.0;430.0;409.0;388.3;368.4;349.5;331.9;315.7;301.1;288.0;276.4;266.3;257.5;250.0;243.5;238.1;233.4;229.5;226.2;223.5;221.2;219.3;217.7;216.4;215.3;214.4" dur="10s" repeatCount="indefinite"/></circle>
<text class="mute" x="430.0" y="414" font-size="13" text-anchor="middle">σ = (1 − w)·σ_trial + w·σ_RI ;  the plastic increment depls is scaled by the same w</text>
<text class="mute" x="776" y="446" font-size="12" text-anchor="end">τ = 0 (default) puts every step at the far right: w ≡ 1, identical to the current code</text>
</svg>
