<?xml version="1.0" encoding="UTF-8" standalone="no"?>
<!-- Created with Inkscape (http://www.inkscape.org/) -->

<svg
   version="1.1"
   id="svg1"
   width="766.29419"
   height="436.95804"
   viewBox="0 0 766.29419 436.95804"
   sodipodi:docname="DES_flowchart.svg"
   inkscape:version="1.4.2 (f4327f4, 2025-05-13)"
   inkscape:export-filename="DES_flowchart.png"
   inkscape:export-xdpi="96"
   inkscape:export-ydpi="96"
   xmlns:inkscape="http://www.inkscape.org/namespaces/inkscape"
   xmlns:sodipodi="http://sodipodi.sourceforge.net/DTD/sodipodi-0.dtd"
   xmlns="http://www.w3.org/2000/svg"
   xmlns:svg="http://www.w3.org/2000/svg">
  <defs
     id="defs1">
    <marker
       style="overflow:visible"
       id="DartArrow"
       refX="0"
       refY="0"
       orient="auto-start-reverse"
       inkscape:stockid="Dart arrow"
       markerWidth="1"
       markerHeight="1.2"
       viewBox="0 0 1 1"
       inkscape:isstock="true"
       inkscape:collect="always"
       preserveAspectRatio="none">
      <path
         style="fill:context-stroke;fill-rule:evenodd;stroke:none"
         d="M 0,0 5,-5 -12.5,0 5,5 Z"
         transform="scale(-0.5)"
         id="path6" />
    </marker>
  </defs>
  <sodipodi:namedview
     id="namedview1"
     pagecolor="#ffffff"
     bordercolor="#000000"
     borderopacity="0.25"
     inkscape:showpageshadow="2"
     inkscape:pageopacity="0.0"
     inkscape:pagecheckerboard="0"
     inkscape:deskcolor="#d1d1d1"
     showgrid="false"
     inkscape:zoom="1.296264"
     inkscape:cx="396.13844"
     inkscape:cy="252.64915"
     inkscape:window-width="1920"
     inkscape:window-height="991"
     inkscape:window-x="-9"
     inkscape:window-y="-9"
     inkscape:window-maximized="1"
     inkscape:current-layer="g1"
     inkscape:export-bgcolor="#ffffffff">
    <inkscape:page
       x="3.5965083e-08"
       y="1.8342178e-07"
       inkscape:label="1"
       id="page1"
       width="766.29419"
       height="436.95804"
       margin="0"
       bleed="0" />
  </sodipodi:namedview>
  <g
     id="g1"
     inkscape:groupmode="layer"
     inkscape:label="1"
     transform="translate(-13.282802,-38.918861)">
    <path
       id="path1"
       d="M -55.90565,-296.89882 H 55.90566 V 14.75028 H -55.90565 Z"
       style="fill:#fff9e6;fill-opacity:1;fill-rule:nonzero;stroke:#000000;stroke-width:0.3985;stroke-linecap:butt;stroke-linejoin:miter;stroke-miterlimit:10;stroke-dasharray:2.98883, 2.98883;stroke-dashoffset:0;stroke-opacity:1"
       transform="matrix(1.3333333,0,0,-1.3333333,88.089333,74.874667)" />
    <path
       id="path3"
       d="M 186.86906,434.74 H 779.31133 V 55.207627 H 186.86906 Z"
       style="fill:#e6f3ff;fill-opacity:1;fill-rule:nonzero;stroke:#000000;stroke-width:0.531333;stroke-linecap:butt;stroke-linejoin:miter;stroke-miterlimit:10;stroke-dasharray:3.98511, 3.98511;stroke-dashoffset:0;stroke-opacity:1"
       sodipodi:nodetypes="ccccc" />
    <path
       id="path4"
       d="m 204.57812,97.355469 c -0.25,0.609375 -0.70312,1.703125 -0.79687,2.125 h -0.0156 c -0.10937,-0.4375 -0.59375,-1.609375 -0.84375,-2.25 l -1.53125,-3.78125 c -0.20312,-0.484375 -0.57812,-0.484375 -0.79687,-0.484375 h -1 c -0.42188,0 -0.5625,0.140625 -0.5625,0.578125 v 7.140621 c 0,0.4375 0.125,0.57813 0.5625,0.57813 h 0.32812 c 0.45313,0 0.57813,-0.15625 0.57813,-0.57813 v -6.171871 c 0.14062,0.53125 0.67187,1.859375 0.96875,2.5625 l 1.375,3.406251 c 0.21875,0.51562 0.51562,0.51562 0.92187,0.51562 0.40625,0 0.6875,0 0.90625,-0.51562 l 1.53125,-3.750001 c 0.10938,-0.28125 0.76563,-1.90625 0.84375,-2.21875 h 0.0156 v 6.171871 c 0,0.39063 0.0781,0.57813 0.5625,0.57813 h 0.32812 c 0.45313,0 0.57813,-0.15625 0.57813,-0.57813 v -7.140621 c 0,-0.390625 -0.0937,-0.578125 -0.57813,-0.578125 h -1 c -0.29687,0 -0.59375,0.03125 -0.79687,0.515625 z m 10.59375,0.125 c 0,-1.890625 -1.8125,-1.890625 -2.42187,-1.890625 -0.5625,0 -1.15625,0.04687 -1.95313,0.375 -0.25,0.109375 -0.3125,0.140625 -0.3125,0.28125 0,0.07813 0.0781,0.765625 0.0781,0.875 0.0156,0.0625 0.0781,0.125 0.15625,0.125 0.0625,0 0.0937,-0.03125 0.14062,-0.07813 0.51563,-0.53125 1.10938,-0.796876 1.84375,-0.796876 0.65625,0 0.84375,0.390626 0.84375,1.09375 v 0.421875 c -0.42187,0 -3.54687,0.03125 -3.54687,1.78125 0,0.843747 0.67187,1.718747 1.71875,1.718747 0.40625,0 1.29687,-0.10937 1.85937,-0.9375 v 0.23438 c 0,0.39062 0.0937,0.57812 0.57813,0.57812 h 0.4375 c 0.45312,0 0.57812,-0.15625 0.57812,-0.57812 z m -1.625,1.9375 c 0,1.109371 -1.14062,1.109371 -1.17187,1.109371 -0.5,0 -0.82813,-0.42187 -0.82813,-0.874996 0,-1.171875 1.65625,-1.265625 2,-1.265625 z m 3.57422,-6.46875 c -0.375,0 -0.57812,0.07813 -0.57812,0.5625 v 0.546875 c 0,0.375 0.125,0.53125 0.5625,0.53125 h 0.625 c 0.57812,0 0.57812,-0.25 0.57812,-0.8125 0,-0.578125 0,-0.828125 -0.57812,-0.828125 z m 1.09375,3.40625 c 0,-0.375 -0.0781,-0.5625 -0.5625,-0.5625 h -0.45312 c -0.42188,0 -0.5625,0.125 -0.5625,0.5625 v 4.328121 c 0,0.4375 0.125,0.57813 0.5625,0.57813 h 0.45312 c 0.45313,0 0.5625,-0.15625 0.5625,-0.57813 z m 6.71094,1.015625 c 0,-1.21875 -0.51562,-1.71875 -1.73437,-1.71875 -1.26563,0 -1.79688,0.90625 -1.95313,1.234375 h -0.0156 v -0.59375 c 0,-0.390625 -0.0781,-0.578125 -0.5625,-0.578125 h -0.40624 c -0.4375,0 -0.57813,0.125 -0.57813,0.578125 v 4.390621 c 0,0.4375 0.125,0.57813 0.57813,0.57813 h 0.46875 c 0.45312,0 0.57812,-0.15625 0.57812,-0.57813 v -2.640621 c 0,-1.03125 0.6875,-1.53125 1.3125,-1.53125 0.57813,0 0.6875,0.28125 0.6875,0.890625 v 3.281246 c 0,0.39063 0.0937,0.57813 0.57813,0.57813 h 0.48437 c 0.45313,0 0.5625,-0.15625 0.5625,-0.57813 z m 7.97266,2.687496 v -6.515621 c 0,-0.390625 -0.0781,-0.578125 -0.57813,-0.578125 h -0.60937 c -0.42188,0 -0.5625,0.140625 -0.5625,0.578125 v 7.140621 c 0,0.4375 0.125,0.57813 0.5625,0.57813 h 4.15625 c 0.45312,0 0.57812,-0.15625 0.57812,-0.57813 v -0.10937 c 0,-0.26563 -0.0156,-0.5625 -0.5625,-0.5625 z m 10.28515,-1.484371 c 0,-1.96875 -0.95312,-2.984375 -2.90625,-2.984375 -1.98437,0 -2.90625,1.0625 -2.90625,2.984375 0,1.953121 1.03125,2.812501 2.90625,2.812501 1.875,0 2.90625,-0.85938 2.90625,-2.812501 z m -2.90625,1.890621 c -1.28125,0 -1.28125,-1.078121 -1.28125,-2.031246 0,-0.921875 0,-1.984375 1.28125,-1.984375 1.28125,0 1.28125,1.046875 1.28125,1.984375 0,0.9375 0,2.031246 -1.28125,2.031246 z m 9.83985,-1.890621 c 0,-1.96875 -0.95313,-2.984375 -2.90625,-2.984375 -1.98438,0 -2.90625,1.0625 -2.90625,2.984375 0,1.953121 1.03125,2.812501 2.90625,2.812501 1.875,0 2.90625,-0.85938 2.90625,-2.812501 z m -2.90625,1.890621 c -1.28125,0 -1.28125,-1.078121 -1.28125,-2.031246 0,-0.921875 0,-1.984375 1.28125,-1.984375 1.28125,0 1.28125,1.046875 1.28125,1.984375 0,0.9375 0,2.031246 -1.28125,2.031246 z m 5.65234,0.32813 c 0.53125,0.59375 1.1875,0.59375 1.35937,0.59375 2.53126,0 2.53126,-2.281251 2.53126,-2.890626 0,-0.578125 0,-2.84375 -2.15626,-2.84375 -0.71874,0 -1.34374,0.296875 -1.78124,0.703125 0,-0.453125 -0.15626,-0.5625 -0.5625,-0.5625 h -0.45313 c -0.42187,0 -0.5625,0.125 -0.5625,0.5625 v 6.656251 c 0,0.42187 0.125,0.5625 0.5625,0.5625 h 0.48437 c 0.45313,0 0.57813,-0.15625 0.57813,-0.5625 z m 0,-3.812501 c 0.125,-0.125 0.51563,-0.390625 1.03125,-0.390625 1.21875,0 1.23438,1.40625 1.23438,1.9375 0,0.46875 0,1.999996 -1.34376,1.999996 -0.28124,0 -0.5,-0.0937 -0.64062,-0.20312 -0.28125,-0.20313 -0.28125,-0.25 -0.28125,-0.468751 z m 0,0"
       style="fill:#000000;fill-opacity:1;fill-rule:nonzero;stroke:none;stroke-width:1.33333"
       aria-label="MainLoop" />
    <path
       id="path5"
       d="m 17.67543,11.03119 h -35.35086 c -8.25353,0 -14.94415,-6.69063 -14.94415,-14.94414 v 7.8259 c 0,-8.25351 6.69062,-14.94414 14.94415,-14.94414 h 35.35086 c 8.25353,0 14.94415,6.69063 14.94415,14.94414 v -7.8259 c 0,8.25351 -6.69062,14.94414 -14.94415,14.94414 z"
       style="fill:#ffffff;fill-opacity:1;fill-rule:nonzero;stroke:#000000;stroke-width:0.79701;stroke-linecap:butt;stroke-linejoin:miter;stroke-miterlimit:10;stroke-dasharray:none;stroke-opacity:1"
       transform="matrix(1.3333333,0,0,-1.3333333,88.089333,74.874667)" />
    <path
       id="path7"
       d="m 45.9827,-34.50574 h -91.9654 c -1.10046,0 -1.99255,-0.89207 -1.99255,-1.99255 v -19.82076 c 0,-1.10048 0.89209,-1.99255 1.99255,-1.99255 h 91.9654 c 1.10046,0 1.99255,0.89207 1.99255,1.99255 v 19.82076 c 0,1.10048 -0.89209,1.99255 -1.99255,1.99255 z"
       style="fill:#ffffff;fill-opacity:1;fill-rule:nonzero;stroke:#000000;stroke-width:0.79701;stroke-linecap:butt;stroke-linejoin:miter;stroke-miterlimit:10;stroke-dasharray:none;stroke-opacity:1"
       transform="matrix(1.3333333,0,0,-1.3333333,88.089333,74.874667)" />
    <path
       id="path9"
       d="m 19.66428,-81.78615 h -39.32856 c -1.10048,0 -1.99255,-0.89209 -1.99255,-1.99255 v -18.07729 c 0,-1.10046 0.89207,-1.99255 1.99255,-1.99255 h 39.32856 c 1.10048,0 1.99255,0.89209 1.99255,1.99255 v 18.07729 c 0,1.10046 -0.89207,1.99255 -1.99255,1.99255 z"
       style="fill:#ffffff;fill-opacity:1;fill-rule:nonzero;stroke:#000000;stroke-width:0.79701;stroke-linecap:butt;stroke-linejoin:miter;stroke-miterlimit:10;stroke-dasharray:none;stroke-opacity:1"
       transform="matrix(1.3333333,0,0,-1.3333333,88.089333,74.874667)" />
    <path
       id="path13"
       d="m 28.04085,-127.32309 h -56.0817 c -1.10046,0 -1.99255,-0.89207 -1.99255,-1.99255 v -19.92554 c 0,-1.10046 0.89209,-1.99255 1.99255,-1.99255 h 56.0817 c 1.10046,0 1.99255,0.89209 1.99255,1.99255 v 19.92554 c 0,1.10048 -0.89209,1.99255 -1.99255,1.99255 z"
       style="fill:#ffffff;fill-opacity:1;fill-rule:nonzero;stroke:#000000;stroke-width:0.79701;stroke-linecap:butt;stroke-linejoin:miter;stroke-miterlimit:10;stroke-dasharray:none;stroke-opacity:1"
       transform="matrix(1.3333333,0,0,-1.3333333,88.089333,74.874667)" />
    <path
       id="path15"
       d="M 52.8373,-174.70827 H -52.8373 c -1.10047,0 -1.99255,-0.89209 -1.99255,-1.99255 v -19.82077 c 0,-1.10048 0.89208,-1.99255 1.99255,-1.99255 H 52.8373 c 1.10047,0 1.99255,0.89207 1.99255,1.99255 v 19.82077 c 0,1.10046 -0.89208,1.99255 -1.99255,1.99255 z"
       style="fill:#ffffff;fill-opacity:1;fill-rule:nonzero;stroke:#000000;stroke-width:0.79701;stroke-linecap:butt;stroke-linejoin:miter;stroke-miterlimit:10;stroke-dasharray:none;stroke-opacity:1"
       transform="matrix(1.3333333,0,0,-1.3333333,88.089333,74.874667)" />
    <path
       id="path19"
       d="M 53.37627,-221.9887 H -53.37627 c -1.10046,0 -1.99255,-0.89207 -1.99255,-1.99255 V -243.802 c 0,-1.10048 0.89209,-1.99256 1.99255,-1.99256 H 53.37627 c 1.10046,0 1.99255,0.89208 1.99255,1.99256 v 19.82075 c 0,1.10048 -0.89209,1.99255 -1.99255,1.99255 z"
       style="fill:#ffffff;fill-opacity:1;fill-rule:nonzero;stroke:#000000;stroke-width:0.79701;stroke-linecap:butt;stroke-linejoin:miter;stroke-miterlimit:10;stroke-dasharray:none;stroke-opacity:1"
       transform="matrix(1.3333333,0,0,-1.3333333,88.089333,74.874667)" />
    <path
       id="path23"
       d="M 50.19402,-269.2691 H -50.19402 c -1.10048,0 -1.99255,-0.8921 -1.99255,-1.99256 v -19.92554 c 0,-1.10047 0.89207,-1.99255 1.99255,-1.99255 H 50.19402 c 1.10048,0 1.99255,0.89208 1.99255,1.99255 v 19.92554 c 0,1.10046 -0.89207,1.99256 -1.99255,1.99256 z"
       style="fill:#ffffff;fill-opacity:1;fill-rule:nonzero;stroke:#000000;stroke-width:0.79701;stroke-linecap:butt;stroke-linejoin:miter;stroke-miterlimit:10;stroke-dasharray:none;stroke-opacity:1"
       transform="matrix(1.3333333,0,0,-1.3333333,88.089333,74.874667)" />
    <path
       id="path25"
       d="M 308.77886,86.845921 H 194.48455 c -1.46729,0 -2.65674,1.189427 -2.65674,2.656746 v 38.744003 c 0,1.46732 1.18945,2.65674 2.65674,2.65674 h 114.29431 c 1.46731,0 2.65673,-1.18942 2.65673,-2.65674 V 89.502667 c 0,-1.467319 -1.18942,-2.656746 -2.65673,-2.656746 z"
       style="fill:#ffffff;fill-opacity:1;fill-rule:nonzero;stroke:#000000;stroke-width:1.06268;stroke-linecap:butt;stroke-linejoin:miter;stroke-miterlimit:10;stroke-dasharray:none;stroke-opacity:1" />
    <path
       id="path27"
       d="M 305.55299,162.20281 H 197.71045 c -1.46731,0 -2.65675,1.18943 -2.65675,2.65674 V 206.039 c 0,1.46728 1.18944,2.65673 2.65675,2.65673 h 107.84254 c 1.46728,0 2.65674,-1.18945 2.65674,-2.65673 v -41.17945 c 0,-1.46731 -1.18946,-2.65674 -2.65674,-2.65674 z"
       style="fill:#ffffff;fill-opacity:1;fill-rule:nonzero;stroke:#000000;stroke-width:1.06268;stroke-linecap:butt;stroke-linejoin:miter;stroke-miterlimit:10;stroke-dasharray:none;stroke-opacity:1" />
    <path
       id="path29"
       d="m 298.59014,239.99513 h -93.91685 c -1.46728,0 -2.65674,1.18943 -2.65674,2.65673 v 41.17944 c 0,1.4673 1.18946,2.65675 2.65674,2.65675 h 93.91685 c 1.46728,0 2.65673,-1.18945 2.65673,-2.65675 v -41.17944 c 0,-1.4673 -1.18945,-2.65673 -2.65673,-2.65673 z"
       style="fill:#ffffff;fill-opacity:1;fill-rule:nonzero;stroke:#000000;stroke-width:1.06268;stroke-linecap:butt;stroke-linejoin:miter;stroke-miterlimit:10;stroke-dasharray:none;stroke-opacity:1" />
    <path
       id="path31"
       d="M 310.88157,317.78745 H 200.09643 c -1.46729,0 -2.65674,1.18943 -2.65674,2.65673 v 41.17944 c 0,1.46729 1.18945,2.65675 2.65674,2.65675 h 110.78514 c 1.46728,0 2.65673,-1.18946 2.65673,-2.65675 v -41.17944 c 0,-1.4673 -1.18945,-2.65673 -2.65673,-2.65673 z"
       style="fill:#ffffff;fill-opacity:1;fill-rule:nonzero;stroke:#000000;stroke-width:1.06268;stroke-linecap:butt;stroke-linejoin:miter;stroke-miterlimit:10;stroke-dasharray:none;stroke-opacity:1" />
    <path
       id="path33"
       d="m 292.3801,395.57974 h -81.49677 c -1.46728,0 -2.65674,1.18945 -2.65674,2.65673 v 26.56739 c 0,1.46731 1.18946,2.65673 2.65674,2.65673 h 81.49677 c 1.46728,0 2.65673,-1.18942 2.65673,-2.65673 v -26.56739 c 0,-1.46728 -1.18945,-2.65673 -2.65673,-2.65673 z"
       style="fill:#ffffff;fill-opacity:1;fill-rule:nonzero;stroke:#000000;stroke-width:1.06268;stroke-linecap:butt;stroke-linejoin:miter;stroke-miterlimit:10;stroke-dasharray:none;stroke-opacity:1" />
    <path
       id="path35"
       d="M 569.50579,147.40227 482.22472,89.285295 c -1.22124,-0.8132 -3.20128,-0.8132 -4.42251,0 l -87.28106,58.116975 c -1.22125,0.8132 -1.22125,2.1316 0,2.9448 l 87.28106,58.11697 c 1.22123,0.8132 3.20127,0.8132 4.42251,0 l 87.28107,-58.11697 c 1.22125,-0.8132 1.22125,-2.1316 0,-2.9448 z"
       style="fill:#ffcc00;fill-opacity:1;fill-rule:nonzero;stroke:#000000;stroke-width:1.06268;stroke-linecap:butt;stroke-linejoin:miter;stroke-miterlimit:10;stroke-dasharray:none;stroke-opacity:1" />
    <path
       id="path37"
       d="m 531.17272,275.27064 -48.94744,-32.56412 c -1.22156,-0.8127 -3.20208,-0.8127 -4.42364,0 l -48.94742,32.56412 c -1.22158,0.81269 -1.22158,2.13026 0,2.94296 l 48.94742,32.56412 c 1.22156,0.81268 3.20208,0.81268 4.42364,0 l 48.94744,-32.56412 c 1.22157,-0.8127 1.22157,-2.13027 0,-2.94296 z"
       style="fill:#ffcc00;fill-opacity:1;fill-rule:nonzero;stroke:#000000;stroke-width:1.06268;stroke-linecap:butt;stroke-linejoin:miter;stroke-miterlimit:10;stroke-dasharray:none;stroke-opacity:1" />
    <path
       id="path39"
       d="m 629.65758,261.964 h -55.6399 c -1.4673,0 -2.65674,1.18945 -2.65674,2.65674 v 24.24274 c 0,1.4673 1.18944,2.65673 2.65674,2.65673 h 55.6399 c 1.46728,0 2.65674,-1.18943 2.65674,-2.65673 v -24.24274 c 0,-1.46729 -1.18946,-2.65674 -2.65674,-2.65674 z"
       style="fill:#ffffff;fill-opacity:1;fill-rule:nonzero;stroke:#000000;stroke-width:1.06268;stroke-linecap:butt;stroke-linejoin:miter;stroke-miterlimit:10;stroke-dasharray:none;stroke-opacity:1" />
    <path
       id="path41"
       d="m 522.12708,343.12346 h -84.22722 c -1.4673,0 -2.65675,1.18945 -2.65675,2.65673 v 26.4277 c 0,1.46729 1.18945,2.65674 2.65675,2.65674 h 84.22722 c 1.46728,0 2.65673,-1.18945 2.65673,-2.65674 v -26.4277 c 0,-1.46728 -1.18945,-2.65673 -2.65673,-2.65673 z"
       style="fill:#ffffff;fill-opacity:1;fill-rule:nonzero;stroke:#000000;stroke-width:1.06268;stroke-linecap:butt;stroke-linejoin:miter;stroke-miterlimit:10;stroke-dasharray:none;stroke-opacity:1" />
    <path
       id="path43"
       d="m 771.92131,357.52159 -91.26373,-60.7719 c -1.22122,-0.8132 -3.20122,-0.8132 -4.42242,0 l -91.26374,60.7719 c -1.22121,0.81322 -1.22121,2.1317 0,2.94491 l 91.26374,60.77191 c 1.2212,0.81318 3.2012,0.81318 4.42242,0 l 91.26373,-60.77191 c 1.2212,-0.81321 1.2212,-2.13169 0,-2.94491 z"
       style="fill:#ffcc00;fill-opacity:1;fill-rule:nonzero;stroke:#000000;stroke-width:1.06268;stroke-linecap:butt;stroke-linejoin:miter;stroke-miterlimit:10;stroke-dasharray:none;stroke-opacity:1" />
    <path
       id="path45"
       d="m 708.51418,445.78935 h -60.13564 c -11.00469,0 -19.92553,8.92084 -19.92553,19.92553 v -10.29485 c 0,11.00472 8.92084,19.92553 19.92553,19.92553 h 60.13564 c 11.00469,0 19.92553,-8.92081 19.92553,-19.92553 v 10.29485 c 0,-11.00469 -8.92084,-19.92553 -19.92553,-19.92553 z"
       style="fill:#d1d5db;fill-opacity:1;fill-rule:nonzero;stroke:#000000;stroke-width:1.06268;stroke-linecap:butt;stroke-linejoin:miter;stroke-miterlimit:10;stroke-dasharray:none;stroke-opacity:1" />
    <path
       id="path47"
       d="M 0,-11.42969 V -29.99687"
       style="fill:none;stroke:#000000;stroke-width:0.79701;stroke-linecap:butt;stroke-linejoin:miter;stroke-miterlimit:10;stroke-dasharray:none;stroke-opacity:1;marker-end:url(#DartArrow)"
       transform="matrix(1.3333333,0,0,-1.3333333,88.089333,74.874667)" />
    <path
       id="path49"
       d="M 0,-58.71011 V -77.27728"
       style="fill:none;stroke:#000000;stroke-width:0.79701;stroke-linecap:butt;stroke-linejoin:miter;stroke-miterlimit:10;stroke-dasharray:none;stroke-opacity:1;marker-end:url(#DartArrow)"
       transform="matrix(1.3333333,0,0,-1.3333333,88.089333,74.874667)" />
    <path
       id="path51"
       d="m 0,-104.24704 v -18.56718"
       style="fill:none;stroke:#000000;stroke-width:0.79701;stroke-linecap:butt;stroke-linejoin:miter;stroke-miterlimit:10;stroke-dasharray:none;stroke-opacity:1;marker-end:url(#DartArrow)"
       transform="matrix(1.3333333,0,0,-1.3333333,88.089333,74.874667)" />
    <path
       id="path53"
       d="m 0,-151.63223 v -18.56719"
       style="fill:none;stroke:#000000;stroke-width:0.79701;stroke-linecap:butt;stroke-linejoin:miter;stroke-miterlimit:10;stroke-dasharray:none;stroke-opacity:1;marker-end:url(#DartArrow)"
       transform="matrix(1.3333333,0,0,-1.3333333,88.089333,74.874667)" />
    <path
       id="path55"
       d="m 0,-198.91264 v -18.56719"
       style="fill:none;stroke:#000000;stroke-width:0.79701;stroke-linecap:butt;stroke-linejoin:miter;stroke-miterlimit:10;stroke-dasharray:none;stroke-opacity:1;marker-end:url(#DartArrow)"
       transform="matrix(1.3333333,0,0,-1.3333333,88.089333,74.874667)" />
    <path
       id="path57"
       d="m 0,-246.19307 v -18.56718"
       style="fill:none;stroke:#000000;stroke-width:0.79701;stroke-linecap:butt;stroke-linejoin:miter;stroke-miterlimit:10;stroke-dasharray:none;stroke-opacity:1;marker-end:url(#DartArrow)"
       transform="matrix(1.3333333,0,0,-1.3333333,88.089333,74.874667)" />
    <path
       id="path59"
       d="m 52.58508,-281.22443 h 8.535119 c 2.20094,0 3.9851,1.78417 3.9851,3.98511 v 249.254219 c 0,2.20094 1.78417,3.9851 3.98511,3.9851 h 4.204599"
       style="fill:none;stroke:#000000;stroke-width:0.79701;stroke-linecap:butt;stroke-linejoin:miter;stroke-miterlimit:10;stroke-dasharray:none;stroke-opacity:1;marker-end:url(#DartArrow)"
       transform="matrix(1.3333333,0,0,-1.3333333,88.089333,74.874667)"
       sodipodi:nodetypes="cssssc" />
    <path
       id="path61"
       d="m 251.6317,131.43476 v 24.75623"
       style="fill:none;stroke:#000000;stroke-width:1.06268;stroke-linecap:butt;stroke-linejoin:miter;stroke-miterlimit:10;stroke-dasharray:none;stroke-opacity:1" />
    <path
       id="path62"
       d="m 251.63171,160.15818 2.09413,-5.53796 -2.09413,1.83644 -2.09413,-1.83644 z"
       style="fill:#000000;fill-opacity:1;fill-rule:nonzero;stroke:#000000;stroke-width:1.06268;stroke-linecap:butt;stroke-linejoin:miter;stroke-miterlimit:10;stroke-dasharray:none;stroke-opacity:1" />
    <path
       id="path63"
       d="M 251.6317,209.22706 V 233.9833"
       style="fill:none;stroke:#000000;stroke-width:1.06268;stroke-linecap:butt;stroke-linejoin:miter;stroke-miterlimit:10;stroke-dasharray:none;stroke-opacity:1" />
    <path
       id="path64"
       d="m 251.63171,237.9505 2.09413,-5.53796 -2.09413,1.83644 -2.09413,-1.83644 z"
       style="fill:#000000;fill-opacity:1;fill-rule:nonzero;stroke:#000000;stroke-width:1.06268;stroke-linecap:butt;stroke-linejoin:miter;stroke-miterlimit:10;stroke-dasharray:none;stroke-opacity:1" />
    <path
       id="path65"
       d="m 251.6317,287.01938 v 24.75624"
       style="fill:none;stroke:#000000;stroke-width:1.06268;stroke-linecap:butt;stroke-linejoin:miter;stroke-miterlimit:10;stroke-dasharray:none;stroke-opacity:1" />
    <path
       id="path66"
       d="m 251.63171,315.74282 2.09413,-5.53796 -2.09413,1.83644 -2.09413,-1.83644 z"
       style="fill:#000000;fill-opacity:1;fill-rule:nonzero;stroke:#000000;stroke-width:1.06268;stroke-linecap:butt;stroke-linejoin:miter;stroke-miterlimit:10;stroke-dasharray:none;stroke-opacity:1" />
    <path
       id="path67"
       d="m 251.6317,364.81169 v 24.75625"
       style="fill:none;stroke:#000000;stroke-width:1.06268;stroke-linecap:butt;stroke-linejoin:miter;stroke-miterlimit:10;stroke-dasharray:none;stroke-opacity:1" />
    <path
       id="path68"
       d="m 251.63171,393.53511 2.09413,-5.53796 -2.09413,1.83644 -2.09413,-1.83644 z"
       style="fill:#000000;fill-opacity:1;fill-rule:nonzero;stroke:#000000;stroke-width:1.06268;stroke-linecap:butt;stroke-linejoin:miter;stroke-miterlimit:10;stroke-dasharray:none;stroke-opacity:1" />
    <path
       id="path69"
       d="M 295.56817,411.52017 339.00806,411.52 V 72.874667 h 141.06993 v 0 9.12668"
       style="fill:none;stroke:#000000;stroke-width:1.06268;stroke-linecap:butt;stroke-linejoin:miter;stroke-miterlimit:10;stroke-dasharray:none;stroke-opacity:1;marker-end:url(#DartArrow)"
       sodipodi:nodetypes="cccccc" />
    <path
       id="path71"
       d="m 480.01345,209.91996 v 27.0808"
       style="fill:none;stroke:#000000;stroke-width:1.06268;stroke-linecap:butt;stroke-linejoin:miter;stroke-miterlimit:10;stroke-dasharray:none;stroke-opacity:1;marker-end:url(#DartArrow)"
       sodipodi:nodetypes="cc" />
    <path
       id="path74"
       d="M 388.78701,148.87467 H 370.19424 V 358.99405 H 429.2313"
       style="fill:none;stroke:#000000;stroke-width:1.06268;stroke-linecap:butt;stroke-linejoin:miter;stroke-miterlimit:10;stroke-dasharray:none;stroke-opacity:1;marker-end:url(#DartArrow)"
       sodipodi:nodetypes="cccc" />
    <path
       id="path77"
       d="m 532.13811,276.74212 h 33.21101"
       style="fill:none;stroke:#000000;stroke-width:1.06268;stroke-linecap:butt;stroke-linejoin:miter;stroke-miterlimit:10;stroke-dasharray:none;stroke-opacity:1;marker-end:url(#DartArrow)"
       sodipodi:nodetypes="cc" />
    <path
       id="path80"
       d="m 480.01345,311.00298 v 26.10865"
       style="fill:none;stroke:#000000;stroke-width:1.06268;stroke-linecap:butt;stroke-linejoin:miter;stroke-miterlimit:10;stroke-dasharray:none;stroke-opacity:1;marker-end:url(#DartArrow)"
       sodipodi:nodetypes="cc" />
    <path
       id="path83"
       d="m 603.83762,262.05157 3.8e-4,-37.05752 H 486.79564"
       style="fill:none;stroke:#000000;stroke-width:1.06268;stroke-linecap:butt;stroke-linejoin:miter;stroke-miterlimit:10;stroke-dasharray:none;stroke-opacity:1;marker-end:url(#DartArrow)"
       sodipodi:nodetypes="ccc" />
    <path
       id="path85"
       d="m 525.31515,358.99405 h 51.20724"
       style="fill:none;stroke:#000000;stroke-width:1.06268;stroke-linecap:butt;stroke-linejoin:miter;stroke-miterlimit:10;stroke-dasharray:none;stroke-opacity:1;marker-end:url(#DartArrow)" />
    <path
       id="path87"
       d="m 678.44637,421.46677 v 18.31075"
       style="fill:none;stroke:#000000;stroke-width:1.06268;stroke-linecap:butt;stroke-linejoin:miter;stroke-miterlimit:10;stroke-dasharray:none;stroke-opacity:1;marker-end:url(#DartArrow)"
       sodipodi:nodetypes="cc" />
    <path
       id="path90"
       d="M 678.44637,296.52582 678.446,63.173921 H 251.63201 l -2e-5,19.265387"
       style="fill:none;stroke:#000000;stroke-width:1.06268;stroke-linecap:butt;stroke-linejoin:miter;stroke-miterlimit:10;stroke-dasharray:none;stroke-opacity:1;marker-end:url(#DartArrow)"
       sodipodi:nodetypes="cccc" />
    <text
       xml:space="preserve"
       style="font-style:normal;font-variant:normal;font-weight:normal;font-stretch:normal;font-size:16px;font-family:Arial;-inkscape-font-specification:'Arial, Normal';font-variant-ligatures:normal;font-variant-caps:normal;font-variant-numeric:normal;font-variant-east-asian:normal;text-align:start;writing-mode:lr-tb;direction:ltr;text-anchor:start;fill:#000000;fill-opacity:1"
       x="46.601212"
       y="50.371986"
       id="text92"><tspan
         sodipodi:role="line"
         id="tspan92"
         x="46.601212"
         y="50.371986">Initialization</tspan></text>
    <text
       xml:space="preserve"
       style="font-style:normal;font-variant:normal;font-weight:normal;font-stretch:normal;font-size:12px;font-family:Arial;-inkscape-font-specification:'Arial, Normal';font-variant-ligatures:normal;font-variant-caps:normal;font-variant-numeric:normal;font-variant-east-asian:normal;text-align:start;writing-mode:lr-tb;direction:ltr;text-anchor:start;fill:#000000;fill-opacity:1"
       x="53.346169"
       y="79.113922"
       id="text93"><tspan
         sodipodi:role="line"
         id="tspan93"
         x="53.346169"
         y="79.113922">start time = 0</tspan></text>
    <text
       xml:space="preserve"
       style="font-style:normal;font-variant:normal;font-weight:normal;font-stretch:normal;font-size:12px;font-family:Arial;-inkscape-font-specification:'Arial, Normal';font-variant-ligatures:normal;font-variant-caps:normal;font-variant-numeric:normal;font-variant-east-asian:normal;text-align:start;writing-mode:lr-tb;direction:ltr;text-anchor:start;fill:#000000;fill-opacity:1"
       x="33.096169"
       y="139.78513"
       id="text94"><tspan
         sodipodi:role="line"
         id="tspan94"
         x="33.096169"
         y="139.78513">get input parameters</tspan></text>
    <text
       xml:space="preserve"
       style="font-style:normal;font-variant:normal;font-weight:normal;font-stretch:normal;font-size:12px;font-family:Arial;-inkscape-font-specification:'Arial, Normal';font-variant-ligatures:normal;font-variant-caps:normal;font-variant-numeric:normal;font-variant-east-asian:normal;text-align:start;writing-mode:lr-tb;direction:ltr;text-anchor:start;fill:#000000;fill-opacity:1"
       x="68.267067"
       y="201.73366"
       id="text95"><tspan
         sodipodi:role="line"
         id="tspan95"
         x="68.267067"
         y="201.73366">init_var</tspan></text>
    <text
       xml:space="preserve"
       style="font-style:normal;font-variant:normal;font-weight:normal;font-stretch:normal;font-size:12px;font-family:Arial;-inkscape-font-specification:'Arial, Normal';font-variant-ligatures:normal;font-variant-caps:normal;font-variant-numeric:normal;font-variant-east-asian:normal;text-align:start;writing-mode:lr-tb;direction:ltr;text-anchor:start;fill:#000000;fill-opacity:1"
       x="58.215309"
       y="263.68176"
       id="text96"><tspan
         sodipodi:role="line"
         id="tspan96"
         x="58.215309"
         y="263.68176">compute dt</tspan></text>
    <text
       xml:space="preserve"
       style="font-style:normal;font-variant:normal;font-weight:normal;font-stretch:normal;font-size:12px;font-family:Arial;-inkscape-font-specification:'Arial, Normal';font-variant-ligatures:normal;font-variant-caps:normal;font-variant-numeric:normal;font-variant-east-asian:normal;text-align:start;writing-mode:lr-tb;direction:ltr;text-anchor:start;fill:#000000;fill-opacity:1"
       x="25.962379"
       y="326.72183"
       id="text97"><tspan
         sodipodi:role="line"
         id="tspan97"
         x="25.962379"
         y="326.72183">starting_time = var.time</tspan></text>
    <text
       xml:space="preserve"
       style="font-style:normal;font-variant:normal;font-weight:normal;font-stretch:normal;font-size:12px;font-family:Arial;-inkscape-font-specification:'Arial, Normal';font-variant-ligatures:normal;font-variant-caps:normal;font-variant-numeric:normal;font-variant-east-asian:normal;text-align:start;writing-mode:lr-tb;direction:ltr;text-anchor:start;fill:#000000;fill-opacity:1"
       x="22.933083"
       y="389.76239"
       id="text98"><tspan
         sodipodi:role="line"
         id="tspan98"
         x="22.933083"
         y="389.76239">starting_step = var.steps</tspan></text>
    <text
       xml:space="preserve"
       style="font-style:normal;font-variant:normal;font-weight:normal;font-stretch:normal;font-size:12px;font-family:Arial;-inkscape-font-specification:'Arial, Normal';font-variant-ligatures:normal;font-variant-caps:normal;font-variant-numeric:normal;font-variant-east-asian:normal;text-align:start;writing-mode:lr-tb;direction:ltr;text-anchor:start;fill:#000000;fill-opacity:1"
       x="29.932106"
       y="452.94601"
       id="text99"><tspan
         sodipodi:role="line"
         id="tspan99"
         x="29.932106"
         y="452.94601">next regular frame = 1</tspan></text>
    <text
       xml:space="preserve"
       style="font-style:normal;font-variant:normal;font-weight:normal;font-stretch:normal;font-size:12px;font-family:Arial;-inkscape-font-specification:'Arial, Normal';font-variant-ligatures:normal;font-variant-caps:normal;font-variant-numeric:normal;font-variant-east-asian:normal;text-align:start;writing-mode:lr-tb;direction:ltr;text-anchor:start;fill:#000000;fill-opacity:1"
       x="639.03033"
       y="464.79205"
       id="text100"><tspan
         sodipodi:role="line"
         id="tspan100"
         x="639.03033"
         y="464.79205">End simulation</tspan></text>
    <text
       xml:space="preserve"
       style="font-style:normal;font-variant:normal;font-weight:normal;font-stretch:normal;font-size:12px;font-family:Arial;-inkscape-font-specification:'Arial, Normal';font-variant-ligatures:normal;font-variant-caps:normal;font-variant-numeric:normal;font-variant-east-asian:normal;text-align:start;writing-mode:lr-tb;direction:ltr;text-anchor:start;fill:#000000;fill-opacity:1"
       x="251.59947"
       y="105.50259"
       id="text101"><tspan
         sodipodi:role="line"
         id="tspan101"
         x="251.59947"
         y="105.50259"
         style="text-align:center;text-anchor:middle">var.steps++</tspan><tspan
         sodipodi:role="line"
         x="251.59947"
         y="120.50259"
         id="tspan106"
         style="text-align:center;text-anchor:middle">var.time += var.dt</tspan></text>
    <text
       xml:space="preserve"
       style="font-style:normal;font-variant:normal;font-weight:normal;font-stretch:normal;font-size:12px;font-family:Arial;-inkscape-font-specification:'Arial, Normal';font-variant-ligatures:normal;font-variant-caps:normal;font-variant-numeric:normal;font-variant-east-asian:normal;text-align:start;writing-mode:lr-tb;direction:ltr;text-anchor:start;fill:#000000;fill-opacity:1"
       x="204.37604"
       y="87.972527"
       id="text102"><tspan
         sodipodi:role="line"
         id="tspan102"
         x="204.37604"
         y="87.972527" /></text>
    <text
       xml:space="preserve"
       style="font-style:normal;font-variant:normal;font-weight:normal;font-stretch:normal;font-size:12px;font-family:Arial;-inkscape-font-specification:'Arial, Normal';font-variant-ligatures:normal;font-variant-caps:normal;font-variant-numeric:normal;font-variant-east-asian:normal;text-align:start;writing-mode:lr-tb;direction:ltr;text-anchor:start;fill:#000000;fill-opacity:1"
       x="251.40906"
       y="181.0518"
       id="text103"><tspan
         sodipodi:role="line"
         x="251.40906"
         y="181.0518"
         id="tspan104"
         style="text-align:center;text-anchor:middle">Update strain rate</tspan><tspan
         sodipodi:role="line"
         x="253.07605"
         y="196.0518"
         id="tspan107"
         style="text-align:center;text-anchor:middle">Update stress </tspan></text>
    <text
       xml:space="preserve"
       style="font-style:normal;font-variant:normal;font-weight:normal;font-stretch:normal;font-size:12px;font-family:Arial;-inkscape-font-specification:'Arial, Normal';font-variant-ligatures:normal;font-variant-caps:normal;font-variant-numeric:normal;font-variant-east-asian:normal;text-align:start;writing-mode:lr-tb;direction:ltr;text-anchor:start;fill:#000000;fill-opacity:1"
       x="213.31754"
       y="162.54626"
       id="text105"><tspan
         sodipodi:role="line"
         x="213.31754"
         y="162.54626"
         id="tspan105" /></text>
    <text
       xml:space="preserve"
       style="font-style:normal;font-variant:normal;font-weight:normal;font-stretch:normal;font-size:12px;font-family:Arial;-inkscape-font-specification:'Arial, Normal';font-variant-ligatures:normal;font-variant-caps:normal;font-variant-numeric:normal;font-variant-east-asian:normal;text-align:start;writing-mode:lr-tb;direction:ltr;text-anchor:start;fill:#000000;fill-opacity:1"
       x="251.21277"
       y="258.84705"
       id="text109"><tspan
         sodipodi:role="line"
         x="251.21277"
         y="258.84705"
         id="tspan108"
         style="text-align:center;text-anchor:middle">Update force</tspan><tspan
         sodipodi:role="line"
         x="251.21277"
         y="273.84705"
         id="tspan109"
         style="text-align:center;text-anchor:middle">Update velocity</tspan></text>
    <text
       xml:space="preserve"
       style="font-style:normal;font-variant:normal;font-weight:normal;font-stretch:normal;font-size:12px;font-family:Arial;-inkscape-font-specification:'Arial, Normal';font-variant-ligatures:normal;font-variant-caps:normal;font-variant-numeric:normal;font-variant-east-asian:normal;text-align:start;writing-mode:lr-tb;direction:ltr;text-anchor:start;fill:#000000;fill-opacity:1"
       x="255.46262"
       y="336.54626"
       id="text111"><tspan
         sodipodi:role="line"
         x="255.46262"
         y="336.54626"
         id="tspan110"
         style="text-align:center;text-anchor:middle">Apply velocity BCs</tspan><tspan
         sodipodi:role="line"
         x="255.46262"
         y="351.54626"
         id="tspan111"
         style="text-align:center;text-anchor:middle">&amp; surface processes</tspan></text>
    <text
       xml:space="preserve"
       style="font-style:normal;font-variant:normal;font-weight:normal;font-stretch:normal;font-size:12px;font-family:Arial;-inkscape-font-specification:'Arial, Normal';font-variant-ligatures:normal;font-variant-caps:normal;font-variant-numeric:normal;font-variant-east-asian:normal;text-align:start;writing-mode:lr-tb;direction:ltr;text-anchor:start;fill:#000000;fill-opacity:1"
       x="215.88074"
       y="414.62271"
       id="text114"><tspan
         sodipodi:role="line"
         x="215.88074"
         y="414.62271"
         id="tspan114">Update mesh</tspan></text>
    <text
       xml:space="preserve"
       style="font-style:normal;font-variant:normal;font-weight:normal;font-stretch:normal;font-size:12px;font-family:Arial;-inkscape-font-specification:'Arial, Normal';font-variant-ligatures:normal;font-variant-caps:normal;font-variant-numeric:normal;font-variant-east-asian:normal;text-align:start;writing-mode:lr-tb;direction:ltr;text-anchor:start;fill:#000000;fill-opacity:1"
       x="480.02225"
       y="138.16959"
       id="text115"><tspan
         sodipodi:role="line"
         id="tspan115"
         x="480.02225"
         y="138.16959"
         style="text-align:center;text-anchor:middle">if var.steps % mesh</tspan><tspan
         sodipodi:role="line"
         x="480.02225"
         y="153.16959"
         id="tspan116"
         style="text-align:center;text-anchor:middle">quality check step</tspan><tspan
         sodipodi:role="line"
         x="480.02225"
         y="168.16959"
         id="tspan117"
         style="text-align:center;text-anchor:middle">interval == 0</tspan></text>
    <text
       xml:space="preserve"
       style="font-style:normal;font-variant:normal;font-weight:normal;font-stretch:normal;font-size:12px;font-family:Arial;-inkscape-font-specification:'Arial, Normal';font-variant-ligatures:normal;font-variant-caps:normal;font-variant-numeric:normal;font-variant-east-asian:normal;text-align:start;writing-mode:lr-tb;direction:ltr;text-anchor:start;fill:#000000;fill-opacity:1"
       x="445.93826"
       y="273.46674"
       id="text118"><tspan
         sodipodi:role="line"
         id="tspan118"
         x="445.93826"
         y="273.46674">Mesh quality </tspan><tspan
         sodipodi:role="line"
         x="445.93826"
         y="288.46674"
         id="tspan119">bad?</tspan></text>
    <text
       xml:space="preserve"
       style="font-style:normal;font-variant:normal;font-weight:normal;font-stretch:normal;font-size:12px;font-family:Arial;-inkscape-font-specification:'Arial, Normal';font-variant-ligatures:normal;font-variant-caps:normal;font-variant-numeric:normal;font-variant-east-asian:normal;text-align:start;writing-mode:lr-tb;direction:ltr;text-anchor:start;fill:#000000;fill-opacity:1"
       x="579.4314"
       y="280.96671"
       id="text120"><tspan
         sodipodi:role="line"
         id="tspan120"
         x="579.4314"
         y="280.96671">Remesh</tspan></text>
    <text
       xml:space="preserve"
       style="font-style:normal;font-variant:normal;font-weight:normal;font-stretch:normal;font-size:12px;font-family:Arial;-inkscape-font-specification:'Arial, Normal';font-variant-ligatures:normal;font-variant-caps:normal;font-variant-numeric:normal;font-variant-east-asian:normal;text-align:start;writing-mode:lr-tb;direction:ltr;text-anchor:start;fill:#000000;fill-opacity:1"
       x="444.93338"
       y="362.09659"
       id="text121"><tspan
         sodipodi:role="line"
         id="tspan121"
         x="444.93338"
         y="362.09659">Write outputs</tspan></text>
    <text
       xml:space="preserve"
       style="font-style:normal;font-variant:normal;font-weight:normal;font-stretch:normal;font-size:12px;font-family:Arial;-inkscape-font-specification:'Arial, Normal';font-variant-ligatures:normal;font-variant-caps:normal;font-variant-numeric:normal;font-variant-east-asian:normal;text-align:start;writing-mode:lr-tb;direction:ltr;text-anchor:start;fill:#000000;fill-opacity:1"
       x="678.27936"
       y="348.2919"
       id="text122"><tspan
         sodipodi:role="line"
         id="tspan122"
         x="678.27936"
         y="348.2919"
         style="text-align:center;text-anchor:middle">if var.steps&lt; max steps</tspan><tspan
         sodipodi:role="line"
         x="678.27936"
         y="363.2919"
         id="tspan123"
         style="text-align:center;text-anchor:middle">&amp;&amp;</tspan><tspan
         sodipodi:role="line"
         x="678.27936"
         y="378.2919"
         id="tspan124"
         style="text-align:center;text-anchor:middle">var.time &lt; max time</tspan></text>
    <text
       xml:space="preserve"
       style="font-style:normal;font-variant:normal;font-weight:normal;font-stretch:normal;font-size:12px;font-family:Arial;-inkscape-font-specification:'Arial, Normal';font-variant-ligatures:normal;font-variant-caps:normal;font-variant-numeric:normal;font-variant-east-asian:normal;text-align:start;writing-mode:lr-tb;direction:ltr;text-anchor:start;fill:#000000;fill-opacity:1"
       x="366.80835"
       y="144.25804"
       id="text125"><tspan
         sodipodi:role="line"
         id="tspan125"
         x="366.80835"
         y="144.25804">No</tspan></text>
    <text
       xml:space="preserve"
       style="font-style:normal;font-variant:normal;font-weight:normal;font-stretch:normal;font-size:12px;font-family:Arial;-inkscape-font-specification:'Arial, Normal';font-variant-ligatures:normal;font-variant-caps:normal;font-variant-numeric:normal;font-variant-east-asian:normal;text-align:start;writing-mode:lr-tb;direction:ltr;text-anchor:start;fill:#000000;fill-opacity:1"
       x="681.92944"
       y="437.4866"
       id="text126"><tspan
         sodipodi:role="line"
         id="tspan126"
         x="681.92944"
         y="437.4866">No</tspan></text>
    <text
       xml:space="preserve"
       style="font-style:normal;font-variant:normal;font-weight:normal;font-stretch:normal;font-size:12px;font-family:Arial;-inkscape-font-specification:'Arial, Normal';font-variant-ligatures:normal;font-variant-caps:normal;font-variant-numeric:normal;font-variant-east-asian:normal;text-align:start;writing-mode:lr-tb;direction:ltr;text-anchor:start;fill:#000000;fill-opacity:1"
       x="682.80835"
       y="286.25806"
       id="text127"><tspan
         sodipodi:role="line"
         id="tspan127"
         x="682.80835"
         y="286.25806">Yes</tspan></text>
    <text
       xml:space="preserve"
       style="font-style:normal;font-variant:normal;font-weight:normal;font-stretch:normal;font-size:12px;font-family:Arial;-inkscape-font-specification:'Arial, Normal';font-variant-ligatures:normal;font-variant-caps:normal;font-variant-numeric:normal;font-variant-east-asian:normal;text-align:start;writing-mode:lr-tb;direction:ltr;text-anchor:start;fill:#000000;fill-opacity:1"
       x="454.80835"
       y="222.25806"
       id="text128"><tspan
         sodipodi:role="line"
         id="tspan128"
         x="454.80835"
         y="222.25806">Yes</tspan></text>
    <text
       xml:space="preserve"
       style="font-style:normal;font-variant:normal;font-weight:normal;font-stretch:normal;font-size:12px;font-family:Arial;-inkscape-font-specification:'Arial, Normal';font-variant-ligatures:normal;font-variant-caps:normal;font-variant-numeric:normal;font-variant-east-asian:normal;text-align:start;writing-mode:lr-tb;direction:ltr;text-anchor:start;fill:#000000;fill-opacity:1"
       x="536.80835"
       y="272.25806"
       id="text129"><tspan
         sodipodi:role="line"
         id="tspan129"
         x="536.80835"
         y="272.25806">Yes</tspan></text>
    <text
       xml:space="preserve"
       style="font-style:normal;font-variant:normal;font-weight:normal;font-stretch:normal;font-size:16px;font-family:Arial;-inkscape-font-specification:'Arial, Normal';font-variant-ligatures:normal;font-variant-caps:normal;font-variant-numeric:normal;font-variant-east-asian:normal;text-align:start;writing-mode:lr-tb;direction:ltr;text-anchor:start;fill:#000000;fill-opacity:1"
       x="446.6012"
       y="50.371986"
       id="text130"><tspan
         sodipodi:role="line"
         id="tspan130"
         x="446.6012"
         y="50.371986">Main Loop</tspan></text>
  </g>
</svg>
